<?xml version="1.0" standalone="no"?>
<!DOCTYPE svg PUBLIC "-//W3C//DTD SVG 20010904//EN"
 "http://www.w3.org/TR/2001/REC-SVG-20010904/DTD/svg10.dtd">
<svg version="1.0" xmlns="http://www.w3.org/2000/svg"
 width="322.000000pt" height="322.000000pt" viewBox="0 0 322.000000 322.000000"
 preserveAspectRatio="xMidYMid meet">
<metadata>
Created by potrace 1.14, written by Peter Selinger 2001-2017
</metadata>
<g transform="translate(0.000000,322.000000) scale(0.100000,-0.100000)"
fill="#000000" stroke="none">
<path d="M216 3172 c4 -14 18 -18 71 -20 78 -4 109 -14 146 -50 34 -33 56
-102 65 -212 9 -109 9 -1425 0 -1506 -21 -183 -81 -247 -230 -246 -41 1 -48
-2 -48 -19 0 -19 14 -19 710 -19 l710 0 0 215 c0 184 -2 215 -15 215 -8 0 -15
-6 -16 -12 -14 -219 -234 -337 -654 -354 -111 -5 -123 -3 -147 16 -38 30 -68
99 -76 177 -10 93 -9 1430 1 1523 14 137 40 211 84 233 39 21 103 37 151 39
30 1 42 6 45 19 5 17 -15 18 -398 19 -383 0 -403 -1 -399 -18z"/>
<path d="M2180 2150 c-133 -33 -207 -74 -290 -161 -132 -136 -158 -365 -62
-543 49 -92 221 -248 357 -322 37 -20 315 -193 368 -229 86 -58 165 -143 199
-215 67 -139 35 -338 -70 -437 -107 -101 -332 -146 -495 -99 -67 19 -165 84
-212 139 -73 85 -121 220 -128 361 -3 50 -7 61 -25 67 -12 5 -22 5 -22 1 0 -4
-5 -38 -10 -77 -10 -85 -21 -224 -24 -324 l-3 -73 41 -30 c80 -58 214 -114
321 -133 17 -3 46 -8 65 -12 78 -14 219 -9 329 12 111 20 252 91 325 162 148
145 185 403 84 601 -70 140 -177 225 -567 453 -228 133 -300 193 -352 296 -32
64 -34 74 -34 168 0 119 17 162 92 239 163 166 462 144 617 -47 73 -90 114
-218 116 -354 0 -38 3 -43 23 -43 23 0 24 5 37 118 7 64 14 131 16 147 2 17 6
76 9 132 l6 103 -63 28 c-49 23 -152 58 -188 65 -176 32 -349 35 -460 7z"/>
</g>
</svg>
